<svg xmlns="http://www.w3.org/2000/svg" viewBox="0 0 32 32" width="32" height="32">
  <defs>
    <linearGradient id="balloonGradient" x1="0%" y1="0%" x2="100%" y2="100%">
      <stop offset="0%" style="stop-color:#FF6B6B;stop-opacity:1" />
      <stop offset="30%" style="stop-color:#FF8E8E;stop-opacity:1" />
      <stop offset="70%" style="stop-color:#FFB3B3;stop-opacity:1" />
      <stop offset="100%" style="stop-color:#FFD1D1;stop-opacity:1" />
    </linearGradient>
    <linearGradient id="skyGradient" x1="0%" y1="0%" x2="100%" y2="100%">
      <stop offset="0%" style="stop-color:#87CEEB;stop-opacity:1" />
      <stop offset="100%" style="stop-color:#B0E0E6;stop-opacity:1" />
    </linearGradient>
    <linearGradient id="basketGradient" x1="0%" y1="0%" x2="100%" y2="100%">
      <stop offset="0%" style="stop-color:#8B4513;stop-opacity:1" />
      <stop offset="100%" style="stop-color:#A0522D;stop-opacity:1" />
    </linearGradient>
  </defs>
  
  <!-- Sky background -->
  <rect width="32" height="32" fill="url(#skyGradient)"/>
  
  <!-- Hot air balloon -->
  <ellipse cx="16" cy="12" rx="8" ry="10" fill="url(#balloonGradient)" stroke="#E55A5A" stroke-width="1"/>
  
  <!-- Balloon pattern lines -->
  <path d="M8 8 Q16 6 24 8" stroke="#E55A5A" stroke-width="1" fill="none" opacity="0.7"/>
  <path d="M8 10 Q16 8 24 10" stroke="#E55A5A" stroke-width="1" fill="none" opacity="0.5"/>
  <path d="M8 12 Q16 10 24 12" stroke="#E55A5A" stroke-width="1" fill="none" opacity="0.5"/>
  <path d="M8 14 Q16 12 24 14" stroke="#E55A5A" stroke-width="1" fill="none" opacity="0.3"/>
  
  <!-- Balloon basket -->
  <rect x="14" y="20" width="4" height="3" fill="url(#basketGradient)" stroke="#654321" stroke-width="0.5"/>
  
  <!-- Ropes connecting balloon to basket -->
  <line x1="12" y1="20" x2="14" y2="20" stroke="#8B4513" stroke-width="1"/>
  <line x1="20" y1="20" x2="18" y2="20" stroke="#8B4513" stroke-width="1"/>
  <line x1="16" y1="20" x2="16" y2="20" stroke="#8B4513" stroke-width="1"/>
  
  <!-- Wind lines -->
  <path d="M2 6 L6 6" stroke="#FFFFFF" stroke-width="1.5" opacity="0.8"/>
  <path d="M2 8 L5 8" stroke="#FFFFFF" stroke-width="1.5" opacity="0.6"/>
  <path d="M2 10 L6 10" stroke="#FFFFFF" stroke-width="1.5" opacity="0.8"/>
  
  <path d="M26 6 L30 6" stroke="#FFFFFF" stroke-width="1.5" opacity="0.8"/>
  <path d="M27 8 L30 8" stroke="#FFFFFF" stroke-width="1.5" opacity="0.6"/>
  <path d="M26 10 L30 10" stroke="#FFFFFF" stroke-width="1.5" opacity="0.8"/>
  
  <!-- Clouds -->
  <ellipse cx="6" cy="4" rx="2" ry="1" fill="#FFFFFF" opacity="0.7"/>
  <ellipse cx="7.5" cy="4.5" rx="1.5" ry="1" fill="#FFFFFF" opacity="0.7"/>
  
  <ellipse cx="26" cy="3" rx="2" ry="1" fill="#FFFFFF" opacity="0.7"/>
  <ellipse cx="27.5" cy="3.5" rx="1.5" ry="1" fill="#FFFFFF" opacity="0.7"/>
</svg>
